<?xml version="1.0" standalone="no"?>
<!DOCTYPE svg PUBLIC "-//W3C//DTD SVG 20010904//EN"
 "http://www.w3.org/TR/2001/REC-SVG-20010904/DTD/svg10.dtd">
<svg version="1.0" xmlns="http://www.w3.org/2000/svg"
 width="1200.000000pt" height="1200.000000pt" viewBox="0 0 1200.000000 1200.000000"
 preserveAspectRatio="xMidYMid meet">
<metadata>
Created by potrace 1.11, written by Peter Selinger 2001-2013
</metadata>
<g transform="translate(0.000000,1200.000000) scale(0.100000,-0.100000)"
fill="#000000" stroke="none">
<path d="M6510 10689 c-1297 -86 -2308 -573 -3009 -1449 -397 -496 -668 -1104
-810 -1815 -155 -777 -155 -1743 0 -2520 205 -1028 689 -1850 1429 -2426 751
-585 1752 -872 2950 -846 151 4 352 13 445 22 962 86 1810 372 2553 861 l142
94 0 1880 0 1880 -1550 0 -1550 0 0 -485 0 -485 965 0 965 0 0 -1178 0 -1178
-97 -51 c-117 -61 -277 -130 -416 -179 -635 -221 -1634 -275 -2386 -129 -284
56 -582 157 -819 281 -228 118 -395 239 -581 419 -441 428 -720 1022 -845
1795 -100 615 -98 1378 4 1996 124 745 399 1335 818 1751 446 444 1029 693
1822 779 229 25 751 25 965 1 521 -61 972 -188 1425 -404 317 -151 688 -388
976 -625 39 -32 74 -58 77 -58 4 0 7 281 7 625 l0 625 -127 76 c-169 100 -533
279 -708 348 -580 227 -1139 350 -1805 396 -168 11 -658 11 -840 -1z"/>
</g>
</svg>
